<svg width="368" height="64" viewBox="0 0 368 64" fill="none" xmlns="http://www.w3.org/2000/svg">
<path d="M30.873 64.004C29.8463 64.004 29.333 62.3613 29.333 59.076V53.994C29.333 46.602 29.179 40.827 28.871 36.669L28.64 33.82C28.4346 32.5367 28.332 31.4073 28.332 30.432C28.332 28.6867 28.3833 27.0953 28.486 25.658L28.64 20.884C28.64 19.2927 28.5373 18.0863 28.332 17.265C27.3053 17.9837 24.1996 28.7893 19.015 49.682L18.938 50.837C18.784 52.1203 18.5786 53.147 18.322 53.917C18.168 54.4817 17.937 54.918 17.629 55.226C17.3723 55.534 17.0643 55.688 16.705 55.688C15.8836 55.688 15.2933 55.4827 14.934 55.072C14.5746 54.6613 14.395 54.0197 14.395 53.147C14.395 51.761 13.7276 48.1677 12.393 42.367C11.1096 36.5663 9.69797 30.9967 8.15797 25.658C6.6693 20.3193 5.64264 17.3677 5.07797 16.803C5.02664 18.5997 4.82131 22.8347 4.46197 29.508C3.7433 41.3147 3.38397 50.606 3.38397 57.382L3.46097 60.462C3.25564 61.1293 2.71664 61.463 1.84397 61.463C1.68997 61.463 1.4333 61.309 1.07397 61.001C0.714638 60.7443 0.534971 60.539 0.534971 60.385C0.534971 55.765 0.945638 47.6543 1.76697 36.053C2.53697 25.273 2.92197 17.188 2.92197 11.798C2.92197 11.5413 2.87064 11.2847 2.76797 11.028C2.61397 10.72 2.53697 10.489 2.53697 10.335C2.53697 9.565 3.2043 9.18 4.53897 9.18C5.41164 9.18 5.92497 9.565 6.07897 10.335C6.2843 11.3617 6.38697 12.1317 6.38697 12.645L6.46397 13.569C6.72064 14.9037 7.46497 16.957 8.69697 19.729C9.67231 21.9363 10.4166 23.8613 10.93 25.504C11.238 26.736 11.5203 27.737 11.777 28.507C12.5983 31.4843 13.1373 33.6917 13.394 35.129L14.395 37.131C14.549 37.901 14.857 39.1587 15.319 40.904C15.781 42.8547 16.1146 44.446 16.32 45.678C16.5253 46.91 16.628 48.0907 16.628 49.22C17.1926 48.3473 18.784 43.1113 21.402 33.512C24.0713 23.8613 25.637 17.7013 26.099 15.032C26.1503 14.9293 26.176 14.801 26.176 14.647C26.2273 14.4417 26.2786 14.185 26.33 13.877C26.4326 13.2097 26.6636 12.2087 27.023 10.874C27.4336 9.84733 28.0496 9.334 28.871 9.334C29.2303 9.334 29.641 9.488 30.103 9.796C30.565 10.104 30.796 10.412 30.796 10.72C30.796 32.126 31.1296 43.445 31.797 44.677V48.681C31.7456 49.8617 31.72 51.222 31.72 52.762C31.72 56.0473 31.8996 58.5113 32.259 60.154C32.3103 60.2053 32.336 60.2823 32.336 60.385C32.3873 60.4877 32.4386 60.616 32.49 60.77C32.5413 60.9753 32.567 61.2063 32.567 61.463C32.567 62.0277 32.3873 62.5923 32.028 63.157C31.72 63.7217 31.335 64.004 30.873 64.004ZM28.332 16.803H28.255L28.101 16.88L28.332 16.957V16.803ZM45.6094 61.001C44.6854 61.001 44.1721 60.462 44.0694 59.384V58.383C44.1208 58.1263 44.1464 57.8183 44.1464 57.459L43.8384 57.151C44.2491 56.073 44.4544 55.0207 44.4544 53.994C44.4544 52.8133 44.3774 51.1193 44.2234 48.912L44.0694 43.83C44.0694 41.2633 44.1464 37.4133 44.3004 32.28C44.5058 27.7113 44.6084 23.8357 44.6084 20.653L44.4544 16.033C44.3518 14.647 44.3004 13.107 44.3004 11.413C44.3004 10.643 44.4801 10.104 44.8394 9.796C45.1988 9.43666 45.7634 9.257 46.5334 9.257C47.0468 9.257 47.4574 9.411 47.7654 9.719C47.8681 9.77033 48.6124 9.873 49.9984 10.027C51.2818 10.181 52.3854 10.412 53.3094 10.72C54.2848 11.028 54.7724 11.413 54.7724 11.875C54.7724 12.3883 54.2848 12.9017 53.3094 13.415C50.3834 12.4397 48.3044 11.952 47.0724 11.952L46.6874 12.414C46.7388 12.876 46.7644 13.9797 46.7644 15.725C46.7644 17.9323 46.7131 19.9087 46.6104 21.654C46.5591 23.4507 46.5334 25.4527 46.5334 27.66C46.5334 29.0973 46.8928 29.816 47.6114 29.816L48.8434 29.739C49.2541 29.6877 49.6904 29.662 50.1524 29.662C52.1544 29.662 53.1554 30.124 53.1554 31.048C53.1554 31.6127 53.0271 32.1003 52.7704 32.511C52.5138 32.8703 52.1288 33.05 51.6154 33.05C50.8454 33.05 50.2551 32.8447 49.8444 32.434L47.3804 32.049H46.9954L46.6104 32.434V32.665C46.7131 33.5377 46.7644 35.5653 46.7644 38.748C46.7644 40.75 46.7388 42.5723 46.6874 44.215L46.6104 49.682C46.6104 51.684 46.6874 53.7373 46.8414 55.842C46.8928 57.0227 47.1494 57.8183 47.6114 58.229C48.0734 58.5883 48.9204 58.768 50.1524 58.768L51.5384 58.691C52.0004 58.6397 52.5138 58.614 53.0784 58.614C54.5671 58.614 55.3114 58.9477 55.3114 59.615C55.3114 60.539 54.1821 61.001 51.9234 61.001H45.6094ZM94.2626 64.004C93.236 64.004 92.7226 62.3613 92.7226 59.076V53.994C92.7226 46.602 92.5686 40.827 92.2606 36.669L92.0296 33.82C91.8243 32.5367 91.7216 31.4073 91.7216 30.432C91.7216 28.6867 91.773 27.0953 91.8756 25.658L92.0296 20.884C92.0296 19.2927 91.927 18.0863 91.7216 17.265C90.695 17.9837 87.5893 28.7893 82.4046 49.682L82.3276 50.837C82.1736 52.1203 81.9683 53.147 81.7116 53.917C81.5576 54.4817 81.3266 54.918 81.0186 55.226C80.762 55.534 80.454 55.688 80.0946 55.688C79.2733 55.688 78.683 55.4827 78.3236 55.072C77.9643 54.6613 77.7846 54.0197 77.7846 53.147C77.7846 51.761 77.1173 48.1677 75.7826 42.367C74.4993 36.5663 73.0876 30.9967 71.5476 25.658C70.059 20.3193 69.0323 17.3677 68.4676 16.803C68.4163 18.5997 68.211 22.8347 67.8516 29.508C67.133 41.3147 66.7736 50.606 66.7736 57.382L66.8506 60.462C66.6453 61.1293 66.1063 61.463 65.2336 61.463C65.0796 61.463 64.823 61.309 64.4636 61.001C64.1043 60.7443 63.9246 60.539 63.9246 60.385C63.9246 55.765 64.3353 47.6543 65.1566 36.053C65.9266 25.273 66.3116 17.188 66.3116 11.798C66.3116 11.5413 66.2603 11.2847 66.1576 11.028C66.0036 10.72 65.9266 10.489 65.9266 10.335C65.9266 9.565 66.594 9.18 67.9286 9.18C68.8013 9.18 69.3146 9.565 69.4686 10.335C69.674 11.3617 69.7766 12.1317 69.7766 12.645L69.8536 13.569C70.1103 14.9037 70.8546 16.957 72.0866 19.729C73.062 21.9363 73.8063 23.8613 74.3196 25.504C74.6276 26.736 74.91 27.737 75.1666 28.507C75.988 31.4843 76.527 33.6917 76.7836 35.129L77.7846 37.131C77.9386 37.901 78.2466 39.1587 78.7086 40.904C79.1706 42.8547 79.5043 44.446 79.7096 45.678C79.915 46.91 80.0176 48.0907 80.0176 49.22C80.5823 48.3473 82.1736 43.1113 84.7916 33.512C87.461 23.8613 89.0266 17.7013 89.4886 15.032C89.54 14.9293 89.5656 14.801 89.5656 14.647C89.617 14.4417 89.6683 14.185 89.7196 13.877C89.8223 13.2097 90.0533 12.2087 90.4126 10.874C90.8233 9.84733 91.4393 9.334 92.2606 9.334C92.62 9.334 93.0306 9.488 93.4926 9.796C93.9546 10.104 94.1856 10.412 94.1856 10.72C94.1856 32.126 94.5193 43.445 95.1866 44.677V48.681C95.1353 49.8617 95.1096 51.222 95.1096 52.762C95.1096 56.0473 95.2893 58.5113 95.6486 60.154C95.7 60.2053 95.7256 60.2823 95.7256 60.385C95.777 60.4877 95.8283 60.616 95.8796 60.77C95.931 60.9753 95.9566 61.2063 95.9566 61.463C95.9566 62.0277 95.777 62.5923 95.4176 63.157C95.1096 63.7217 94.7246 64.004 94.2626 64.004ZM91.7216 16.803H91.6446L91.4906 16.88L91.7216 16.957V16.803ZM124.784 43.368C125.092 49.528 125.349 54.148 125.554 57.228C125.554 57.7413 125.426 58.2547 125.169 58.768C124.964 59.23 124.579 59.461 124.014 59.461C123.09 59.461 122.628 58.9733 122.628 57.998C122.731 54.4047 122.782 51.7097 122.782 49.913C122.782 47.8083 122.679 44.5487 122.474 40.134L122.166 35.976L121.935 17.188C121.884 16.6233 121.884 15.956 121.935 15.186C121.986 14.416 122.012 13.8 122.012 13.338C122.012 12.3627 121.909 11.3617 121.704 10.335C121.653 10.181 121.627 10.0013 121.627 9.796C121.627 9.026 122.089 8.718 123.013 8.872C124.091 9.026 124.681 9.69333 124.784 10.874C124.835 11.4387 124.861 12.337 124.861 13.569C124.861 14.7497 124.835 15.648 124.784 16.264L124.245 31.664L124.784 43.368ZM112.772 29.508C114.004 29.6107 115.236 30.3037 116.468 31.587C117.7 32.8703 118.393 34.205 118.547 35.591C118.752 37.3363 118.932 40.75 119.086 45.832C119.086 47.4233 118.906 49.1943 118.547 51.145C118.239 53.0957 117.777 54.764 117.161 56.15C116.442 57.844 114.44 59.0503 111.155 59.769C110.642 59.923 110.18 60 109.769 60C108.229 60 107.459 59.0247 107.459 57.074V53.917L107.536 40.057C107.536 38.825 107.485 37.0283 107.382 34.667L107.305 31.972C107.305 31.1507 107.356 29.508 107.459 27.044C107.562 23.5533 107.613 20.3963 107.613 17.573C107.613 16.803 107.587 15.6993 107.536 14.262C107.485 12.7733 107.408 11.7723 107.305 11.259C107.254 11.1563 107.228 10.9767 107.228 10.72C107.228 10.104 107.536 9.69333 108.152 9.488C108.46 9.38533 108.691 9.334 108.845 9.334C109.307 9.334 109.666 9.565 109.923 10.027C110.231 10.489 110.385 11.105 110.385 11.875C110.385 18.7023 110.282 23.5533 110.077 26.428L109.923 28.122C109.769 28.892 109.692 29.4823 109.692 29.893C110.103 29.8417 110.59 29.7647 111.155 29.662C111.771 29.508 112.31 29.4567 112.772 29.508ZM116.237 51.838C116.648 49.4767 116.853 46.833 116.853 43.907C116.853 40.673 116.571 38.0807 116.006 36.13C115.698 35.052 115.133 34.1023 114.312 33.281C113.491 32.4597 112.515 32.049 111.386 32.049C110.924 32.049 110.462 32.126 110 32.28V44.6V50.991C110 52.3257 110.026 53.455 110.077 54.379C110.18 55.2517 110.385 56.1243 110.693 56.997C113.927 56.227 115.775 54.5073 116.237 51.838ZM148.186 32.896C147.775 32.896 147.39 32.7677 147.031 32.511C146.723 32.2543 146.569 31.9463 146.569 31.587C146.569 31.433 153.73 31.356 168.052 31.356H178.986C179.397 31.356 179.782 31.51 180.141 31.818C180.552 32.0747 180.757 32.357 180.757 32.665H178.37C178.37 32.819 175.675 32.896 170.285 32.896H148.186ZM204.752 60.693C204.392 60.693 204.033 60.5647 203.674 60.308C203.314 60.0513 203.109 59.769 203.058 59.461C202.647 57.4077 202.39 55.8677 202.288 54.841L202.057 50.683C201.595 44.5743 201.364 39.5437 201.364 35.591C201.364 33.4863 201.415 31.1507 201.518 28.584C201.62 25.966 201.697 24.1437 201.749 23.117L201.98 18.189C202.082 13.0557 202.134 9.23133 202.134 6.716C202.185 6.254 202.185 5.84333 202.134 5.484C202.134 5.12466 202.134 4.81666 202.134 4.56V2.481C202.134 2.07033 202.313 1.73666 202.673 1.48C203.032 1.22333 203.494 1.14633 204.059 1.249C204.88 1.45433 205.214 2.04466 205.06 3.02C204.957 3.58466 204.88 4.07233 204.829 4.483C204.829 4.84233 204.829 5.15033 204.829 5.407L204.675 8.564C204.572 11.336 204.469 13.3893 204.367 14.724C204.315 15.6993 204.187 17.2907 203.982 19.498C203.93 20.268 203.853 21.2177 203.751 22.347C203.648 23.425 203.571 24.7083 203.52 26.197C203.417 29.893 203.366 32.6907 203.366 34.59C203.366 36.9 203.391 38.6453 203.443 39.826C203.494 42.4953 203.725 45.9603 204.136 50.221L204.367 53.378C204.418 53.7373 204.469 54.148 204.521 54.61C204.623 55.0207 204.7 55.4313 204.752 55.842H205.06C205.162 55.7907 205.727 53.9427 206.754 50.298C207.78 46.602 208.499 44.0353 208.91 42.598L212.837 28.584L218.689 7.178C219.253 5.07333 219.638 3.713 219.844 3.097C220.1 2.327 220.614 1.942 221.384 1.942C222.41 1.942 222.872 2.58367 222.77 3.867C222.718 4.27767 222.641 4.791 222.539 5.407C222.436 6.023 222.359 6.716 222.308 7.486C222.308 9.488 222.256 12.645 222.154 16.957L221.923 26.428C221.923 27.044 221.871 27.968 221.769 29.2C221.666 31.048 221.615 32.4597 221.615 33.435L221.692 41.597C221.794 45.293 221.846 48.065 221.846 49.913V54.071L221.923 57.613V57.844C221.923 58.3573 221.794 58.768 221.538 59.076C221.332 59.384 221.024 59.5123 220.614 59.461C220.254 59.461 219.921 59.2813 219.613 58.922C219.305 58.5627 219.151 58.152 219.151 57.69C219.151 57.1767 219.202 56.5093 219.305 55.688C219.305 54.8153 219.356 53.455 219.459 51.607C219.561 48.9377 219.613 46.9357 219.613 45.601C219.613 42.3157 219.638 39.441 219.69 36.977C219.741 34.4617 219.792 32.3827 219.844 30.74C219.946 28.584 219.998 26.967 219.998 25.889C219.998 24.6057 220.049 22.6293 220.152 19.96C220.254 15.4427 220.306 12.029 220.306 9.719L219.998 9.642L218.227 16.033L213.376 33.127C212.4 36.4637 210.989 41.52 209.141 48.296C208.063 52.0947 207.267 55.1233 206.754 57.382C206.548 57.9467 206.369 58.614 206.215 59.384C206.009 60.2053 205.547 60.6417 204.829 60.693H204.752ZM254.335 60.462C253.821 60.462 253.436 60.2823 253.18 59.923C252.923 59.5123 252.795 59.0247 252.795 58.46V51.607V44.754L252.641 32.434C252.487 26.9413 252.41 22.8347 252.41 20.114L252.487 17.881V12.876C252.487 7.332 252.435 4.56 252.333 4.56H243.632C243.221 4.56 242.836 4.45733 242.477 4.252C242.169 4.04666 242.015 3.76433 242.015 3.405C242.015 2.99433 242.092 2.712 242.246 2.558C242.4 2.404 242.81 2.27566 243.478 2.173C244.196 2.019 245.223 1.942 246.558 1.942H254.258L262.728 1.865C263.344 1.865 263.754 1.96766 263.96 2.173C264.216 2.37833 264.345 2.712 264.345 3.174C264.345 3.944 263.857 4.329 262.882 4.329H259.417H256.029L255.336 4.406L255.413 8.872V14.878V46.14V52.531L255.49 58.229V58.383C255.49 58.7937 255.464 59.153 255.413 59.461C255.361 59.7177 255.259 59.923 255.105 60.077C254.951 60.3337 254.694 60.462 254.335 60.462ZM277.769 61.617C270.633 61.617 267.066 49.2713 267.066 24.58V21.5C267.066 17.188 267.322 13.4407 267.836 10.258C268.144 8.256 268.554 6.61333 269.068 5.33C269.632 4.04666 270.377 3.02 271.301 2.25C272.173 1.37733 273.303 0.940998 274.689 0.940998C275.921 0.940998 277.05 1.19766 278.077 1.711C279.103 2.173 279.95 2.789 280.618 3.559C281.182 4.27766 281.696 5.22733 282.158 6.408C282.62 7.58866 282.979 8.718 283.236 9.796L283.852 13.415C285.084 22.193 285.7 29.97 285.7 36.746V36.977C285.7 39.5437 285.648 41.905 285.546 44.061C285.443 46.6277 285.161 49.3227 284.699 52.146C284.493 53.532 284.185 54.7383 283.775 55.765C283.415 56.7917 282.928 57.8183 282.312 58.845C281.234 60.693 279.719 61.617 277.769 61.617ZM277.923 59.461C278.744 59.461 279.488 58.999 280.156 58.075C280.823 57.0997 281.336 55.765 281.696 54.071C282.517 50.4777 283.03 46.9613 283.236 43.522C283.338 40.75 283.39 38.055 283.39 35.437V35.129L283.313 27.429C283.21 24.657 282.902 21.0637 282.389 16.649C281.978 13.5177 281.131 10.3093 279.848 7.024C279.334 5.74066 278.641 4.73966 277.769 4.021C276.947 3.30233 276.049 2.943 275.074 2.943C274.201 2.943 273.431 3.35366 272.764 4.175C272.096 4.99633 271.557 6.15133 271.147 7.64C270.223 11.0793 269.709 14.262 269.607 17.188C269.453 19.7033 269.376 22.2957 269.376 24.965V28.738C269.376 32.1773 269.709 36.5407 270.377 41.828C270.787 45.1647 271.301 48.065 271.917 50.529C272.533 52.993 273.354 55.072 274.381 56.766C275.407 58.5627 276.588 59.461 277.923 59.461ZM303.73 60.616C303.371 60.616 303.063 60.4877 302.806 60.231C302.55 60.0257 302.37 59.7433 302.267 59.384L302.344 58.306V49.99C302.344 46.294 302.319 43.522 302.267 41.674C302.216 39.1073 302.088 35.206 301.882 29.97C301.882 29.816 301.882 29.508 301.882 29.046C301.882 28.584 301.857 28.122 301.805 27.66C301.446 28.122 301.087 28.6867 300.727 29.354C300.419 30.0213 300.214 30.432 300.111 30.586C299.752 31.356 299.136 31.972 298.263 32.434C297.391 32.8447 296.441 33.05 295.414 33.05C293.772 33.05 292.591 32.588 291.872 31.664C291.154 30.74 290.794 29.4053 290.794 27.66L290.332 5.484C290.332 5.22733 290.307 4.945 290.255 4.637C290.204 4.329 290.178 3.99533 290.178 3.636C290.178 2.45533 290.563 1.89066 291.333 1.942C291.795 1.942 292.103 2.173 292.257 2.635C292.463 3.04566 292.565 3.482 292.565 3.944C292.565 5.176 292.591 6.12566 292.642 6.793C292.642 11.5157 292.719 15.7763 292.873 19.575L292.95 23.348C293.002 24.1693 293.027 25.4013 293.027 27.044C293.027 28.43 293.233 29.4053 293.643 29.97C294.054 30.5347 294.747 30.817 295.722 30.817C296.544 30.817 297.237 30.6117 297.801 30.201C298.931 29.0717 299.829 27.5573 300.496 25.658C301.215 23.7587 301.574 22.039 301.574 20.499C301.574 16.649 301.626 11.7467 301.728 5.792C301.728 5.484 301.677 5.15033 301.574 4.791C301.523 4.38033 301.497 3.99533 301.497 3.636C301.497 3.43066 301.549 3.174 301.651 2.866C301.754 2.50666 301.959 2.27566 302.267 2.173C302.575 2.07033 302.883 2.07033 303.191 2.173C303.705 2.42966 303.961 2.96866 303.961 3.79C304.064 6.15133 304.115 7.76833 304.115 8.641C304.115 10.2837 304.064 13.107 303.961 17.111C303.807 20.345 303.73 23.4763 303.73 26.505C303.73 29.893 303.91 33.9227 304.269 38.594L304.577 43.83C304.629 44.3947 304.654 45.216 304.654 46.294V48.835L305.116 59.384C304.962 60.2567 304.5 60.6673 303.73 60.616ZM328.797 60.308C327.514 60.308 326.41 59.923 325.486 59.153C324.562 58.383 323.895 57.2793 323.484 55.842C323.33 55.1233 323.228 54.3277 323.176 53.455C323.125 52.531 323.099 51.915 323.099 51.607L322.868 45.216C322.766 41.52 322.663 38.594 322.56 36.438C322.509 35.4627 322.355 34.513 322.098 33.589C321.893 32.819 321.611 32.28 321.251 31.972C320.943 31.6127 320.481 31.433 319.865 31.433C319.352 31.433 318.762 31.51 318.094 31.664V36.053C318.094 37.7983 318.197 40.519 318.402 44.215C318.402 45.0363 318.454 46.3197 318.556 48.065C318.967 53.8143 319.172 57.3563 319.172 58.691C319.018 59.615 318.582 60.077 317.863 60.077C316.888 60.077 316.4 59.5893 316.4 58.614C316.4 55.4827 316.375 53.147 316.323 51.607C316.169 47.757 316.092 43.9583 316.092 40.211L315.938 32.588L315.707 21.885C315.656 20.653 315.63 18.7537 315.63 16.187L315.707 4.714L315.63 3.482C315.63 3.12266 315.707 2.789 315.861 2.481C315.861 2.37833 315.938 2.27566 316.092 2.173C316.246 2.019 316.503 1.942 316.862 1.942C317.478 1.99333 317.812 2.481 317.863 3.405C317.863 4.12367 317.915 5.30433 318.017 6.947L318.094 10.489C318.043 11.9777 317.966 14.8523 317.863 19.113C317.761 23.3737 317.735 26.2483 317.786 27.737C317.786 28.4043 318.043 28.738 318.556 28.738C318.967 28.738 319.429 28.584 319.942 28.276C321.328 27.4033 322.124 25.2987 322.329 21.962C322.432 20.73 322.483 19.7547 322.483 19.036C322.586 17.65 322.689 16.2127 322.791 14.724C322.894 13.2353 322.997 11.7467 323.099 10.258C323.253 7.794 324.229 5.43267 326.025 3.174C326.744 2.25 327.668 1.788 328.797 1.788C329.516 1.788 330.132 1.942 330.645 2.25C331.261 2.50666 331.569 2.89166 331.569 3.405C331.569 3.867 331.441 4.14933 331.184 4.252C330.979 4.35466 330.645 4.35466 330.183 4.252C329.567 4.098 329.08 4.021 328.72 4.021C328.207 4.021 327.796 4.14933 327.488 4.406C327.232 4.61133 326.949 4.99633 326.641 5.561C325.871 6.84433 325.358 8.28166 325.101 9.873C324.845 11.413 324.665 13.2867 324.562 15.494C324.46 17.034 324.408 18.189 324.408 18.959C324.408 19.3697 324.383 20.114 324.331 21.192C324.28 22.2187 324.203 23.2453 324.1 24.272C323.69 27.4547 322.483 29.3027 320.481 29.816C321.713 29.816 322.586 30.2267 323.099 31.048C323.613 31.8693 324.049 33.0757 324.408 34.667C324.562 35.437 324.639 36.746 324.639 38.594V43.907C324.691 45.2417 324.819 47.4233 325.024 50.452C325.024 50.9653 325.076 51.838 325.178 53.07C325.281 54.302 325.64 55.4313 326.256 56.458C326.872 57.4847 327.668 57.998 328.643 57.998C328.746 57.998 329.003 57.9467 329.413 57.844C330.029 57.536 330.568 57.382 331.03 57.382C331.544 57.382 331.877 57.6643 332.031 58.229C332.083 58.6397 331.929 59.0503 331.569 59.461C331.21 59.8203 330.774 60.0513 330.26 60.154C329.542 60.2567 329.054 60.308 328.797 60.308ZM352.837 60C352.426 60 352.067 59.8717 351.759 59.615C351.502 59.3583 351.374 59.0503 351.374 58.691V48.604C351.374 47.988 350.065 47.4233 347.447 46.91C344.829 46.3967 342.673 46.14 340.979 46.14C340.876 46.14 340.697 46.525 340.44 47.295C340.235 48.065 340.081 48.6297 339.978 48.989C339.311 51.6583 338.643 54.5073 337.976 57.536L337.591 59.23C337.488 59.6407 337.232 59.846 336.821 59.846C336.41 59.846 336.025 59.7177 335.666 59.461C335.358 59.2043 335.204 58.8963 335.204 58.537L335.281 58.383V58.306L336.128 54.456C336.744 52.0433 337.283 49.682 337.745 47.372C338.258 44.754 338.643 43.06 338.9 42.29C339.311 40.596 340.132 36.361 341.364 29.585L341.826 27.044C343.161 19.1387 344.085 14.1593 344.598 12.106C344.855 10.874 345.317 9.05166 345.984 6.639C346.241 5.61233 346.6 4.58566 347.062 3.559C347.524 2.68633 347.909 2.25 348.217 2.25C349.038 2.25 349.629 2.50666 349.988 3.02C350.245 3.482 350.63 6.023 351.143 10.643C351.708 15.263 352.195 19.9343 352.606 24.657L353.607 37.439C353.607 39.6463 353.761 42.983 354.069 47.449C354.377 51.9663 354.531 55.3287 354.531 57.536V57.844C354.531 58.4087 354.454 58.922 354.3 59.384C354.095 59.7947 353.607 60 352.837 60ZM349.757 45.139C350.784 45.139 351.297 44.8823 351.297 44.369C351.297 41.1863 351.117 36.8487 350.758 31.356C350.399 25.812 350.014 20.9353 349.603 16.726C349.5 14.9293 349.295 12.953 348.987 10.797L348.679 7.794C348.679 7.84533 348.628 7.563 348.525 6.947L348.371 6.023C347.96 7.15233 347.55 8.718 347.139 10.72C346.78 12.722 346.395 15.0833 345.984 17.804C344.752 25.4527 343.7 31.202 342.827 35.052L342.134 37.67C341.364 40.2367 340.979 42.1873 340.979 43.522V43.984C343.238 44.7027 345.83 45.062 348.756 45.062H349.218C349.372 45.1133 349.552 45.139 349.757 45.139ZM365.199 60.308C364.737 60.308 364.326 60.1283 363.967 59.769C363.659 59.3583 363.505 58.922 363.505 58.46C363.505 57.9467 363.71 57.4847 364.121 57.074C364.531 56.612 364.993 56.381 365.507 56.381C365.917 56.381 366.328 56.612 366.739 57.074C367.149 57.4847 367.355 57.921 367.355 58.383C367.355 59.6663 366.636 60.308 365.199 60.308Z" fill="#121723"/>
</svg>
