<svg width="250" height="43" viewBox="0 0 250 43" fill="none" xmlns="http://www.w3.org/2000/svg">
<path opacity="0.5" d="M25.685 45.86C24.9517 45.86 24.585 44.6867 24.585 42.34V38.71C24.585 33.43 24.475 29.305 24.255 26.335L24.09 24.3C23.9433 23.3833 23.87 22.5767 23.87 21.88C23.87 20.6333 23.9067 19.4967 23.98 18.47L24.09 15.06C24.09 13.9233 24.0167 13.0617 23.87 12.475C23.1367 12.9883 20.9183 20.7067 17.215 35.63L17.16 36.455C17.05 37.3717 16.9033 38.105 16.72 38.655C16.61 39.0583 16.445 39.37 16.225 39.59C16.0417 39.81 15.8217 39.92 15.565 39.92C14.9783 39.92 14.5567 39.7733 14.3 39.48C14.0433 39.1867 13.915 38.7283 13.915 38.105C13.915 37.115 13.4383 34.5483 12.485 30.405C11.5683 26.2617 10.56 22.2833 9.46 18.47C8.39667 14.6567 7.66333 12.5483 7.26 12.145C7.22333 13.4283 7.07667 16.4533 6.82 21.22C6.30667 29.6533 6.05 36.29 6.05 41.13L6.105 43.33C5.95833 43.8067 5.57333 44.045 4.95 44.045C4.84 44.045 4.65667 43.935 4.4 43.715C4.14333 43.5317 4.015 43.385 4.015 43.275C4.015 39.975 4.30833 34.1817 4.895 25.895C5.445 18.195 5.72 12.42 5.72 8.57C5.72 8.38666 5.68333 8.20333 5.61 8.02C5.5 7.8 5.445 7.635 5.445 7.525C5.445 6.975 5.92167 6.7 6.875 6.7C7.49833 6.7 7.865 6.975 7.975 7.525C8.12167 8.25833 8.195 8.80833 8.195 9.175L8.25 9.835C8.43333 10.7883 8.965 12.255 9.845 14.235C10.5417 15.8117 11.0733 17.1867 11.44 18.36C11.66 19.24 11.8617 19.955 12.045 20.505C12.6317 22.6317 13.0167 24.2083 13.2 25.235L13.915 26.665C14.025 27.215 14.245 28.1133 14.575 29.36C14.905 30.7533 15.1433 31.89 15.29 32.77C15.4367 33.65 15.51 34.4933 15.51 35.3C15.9133 34.6767 17.05 30.9367 18.92 24.08C20.8267 17.1867 21.945 12.7867 22.275 10.88C22.3117 10.8067 22.33 10.715 22.33 10.605C22.3667 10.4583 22.4033 10.275 22.44 10.055C22.5133 9.57833 22.6783 8.86333 22.935 7.91C23.2283 7.17666 23.6683 6.81 24.255 6.81C24.5117 6.81 24.805 6.92 25.135 7.14C25.465 7.36 25.63 7.58 25.63 7.8C25.63 23.09 25.8683 31.175 26.345 32.055V34.915C26.3083 35.7583 26.29 36.73 26.29 37.83C26.29 40.1767 26.4183 41.9367 26.675 43.11C26.7117 43.1467 26.73 43.2017 26.73 43.275C26.7667 43.3483 26.8033 43.44 26.84 43.55C26.8767 43.6967 26.895 43.8617 26.895 44.045C26.895 44.4483 26.7667 44.8517 26.51 45.255C26.29 45.6583 26.015 45.86 25.685 45.86ZM23.87 12.145H23.815L23.705 12.2L23.87 12.255V12.145ZM36.2111 43.715C35.5511 43.715 35.1844 43.33 35.1111 42.56V41.845C35.1477 41.6617 35.1661 41.4417 35.1661 41.185L34.9461 40.965C35.2394 40.195 35.3861 39.4433 35.3861 38.71C35.3861 37.8667 35.3311 36.6567 35.2211 35.08L35.1111 31.45C35.1111 29.6167 35.1661 26.8667 35.2761 23.2C35.4227 19.9367 35.4961 17.1683 35.4961 14.895L35.3861 11.595C35.3127 10.605 35.2761 9.505 35.2761 8.295C35.2761 7.745 35.4044 7.36 35.6611 7.14C35.9177 6.88333 36.3211 6.755 36.8711 6.755C37.2377 6.755 37.5311 6.865 37.7511 7.085C37.8244 7.12167 38.3561 7.195 39.3461 7.305C40.2627 7.415 41.0511 7.58 41.7111 7.8C42.4077 8.02 42.7561 8.295 42.7561 8.625C42.7561 8.99167 42.4077 9.35833 41.7111 9.725C39.6211 9.02833 38.1361 8.68 37.2561 8.68L36.9811 9.01C37.0177 9.34 37.0361 10.1283 37.0361 11.375C37.0361 12.9517 36.9994 14.3633 36.9261 15.61C36.8894 16.8933 36.8711 18.3233 36.8711 19.9C36.8711 20.9267 37.1277 21.44 37.6411 21.44L38.5211 21.385C38.8144 21.3483 39.1261 21.33 39.4561 21.33C40.8861 21.33 41.6011 21.66 41.6011 22.32C41.6011 22.7233 41.5094 23.0717 41.3261 23.365C41.1427 23.6217 40.8677 23.75 40.5011 23.75C39.9511 23.75 39.5294 23.6033 39.2361 23.31L37.4761 23.035H37.2011L36.9261 23.31V23.475C36.9994 24.0983 37.0361 25.5467 37.0361 27.82C37.0361 29.25 37.0177 30.5517 36.9811 31.725L36.9261 35.63C36.9261 37.06 36.9811 38.5267 37.0911 40.03C37.1277 40.8733 37.3111 41.4417 37.6411 41.735C37.9711 41.9917 38.5761 42.12 39.4561 42.12L40.4461 42.065C40.7761 42.0283 41.1427 42.01 41.5461 42.01C42.6094 42.01 43.1411 42.2483 43.1411 42.725C43.1411 43.385 42.3344 43.715 40.7211 43.715H36.2111ZM70.9633 45.86C70.23 45.86 69.8633 44.6867 69.8633 42.34V38.71C69.8633 33.43 69.7533 29.305 69.5333 26.335L69.3683 24.3C69.2217 23.3833 69.1483 22.5767 69.1483 21.88C69.1483 20.6333 69.185 19.4967 69.2583 18.47L69.3683 15.06C69.3683 13.9233 69.295 13.0617 69.1483 12.475C68.415 12.9883 66.1967 20.7067 62.4933 35.63L62.4383 36.455C62.3283 37.3717 62.1817 38.105 61.9983 38.655C61.8883 39.0583 61.7233 39.37 61.5033 39.59C61.32 39.81 61.1 39.92 60.8433 39.92C60.2567 39.92 59.835 39.7733 59.5783 39.48C59.3217 39.1867 59.1933 38.7283 59.1933 38.105C59.1933 37.115 58.7167 34.5483 57.7633 30.405C56.8467 26.2617 55.8383 22.2833 54.7383 18.47C53.675 14.6567 52.9417 12.5483 52.5383 12.145C52.5017 13.4283 52.355 16.4533 52.0983 21.22C51.585 29.6533 51.3283 36.29 51.3283 41.13L51.3833 43.33C51.2367 43.8067 50.8517 44.045 50.2283 44.045C50.1183 44.045 49.935 43.935 49.6783 43.715C49.4217 43.5317 49.2933 43.385 49.2933 43.275C49.2933 39.975 49.5867 34.1817 50.1733 25.895C50.7233 18.195 50.9983 12.42 50.9983 8.57C50.9983 8.38666 50.9617 8.20333 50.8883 8.02C50.7783 7.8 50.7233 7.635 50.7233 7.525C50.7233 6.975 51.2 6.7 52.1533 6.7C52.7767 6.7 53.1433 6.975 53.2533 7.525C53.4 8.25833 53.4733 8.80833 53.4733 9.175L53.5283 9.835C53.7117 10.7883 54.2433 12.255 55.1233 14.235C55.82 15.8117 56.3517 17.1867 56.7183 18.36C56.9383 19.24 57.14 19.955 57.3233 20.505C57.91 22.6317 58.295 24.2083 58.4783 25.235L59.1933 26.665C59.3033 27.215 59.5233 28.1133 59.8533 29.36C60.1833 30.7533 60.4217 31.89 60.5683 32.77C60.715 33.65 60.7883 34.4933 60.7883 35.3C61.1917 34.6767 62.3283 30.9367 64.1983 24.08C66.105 17.1867 67.2233 12.7867 67.5533 10.88C67.59 10.8067 67.6083 10.715 67.6083 10.605C67.645 10.4583 67.6817 10.275 67.7183 10.055C67.7917 9.57833 67.9567 8.86333 68.2133 7.91C68.5067 7.17666 68.9467 6.81 69.5333 6.81C69.79 6.81 70.0833 6.92 70.4133 7.14C70.7433 7.36 70.9083 7.58 70.9083 7.8C70.9083 23.09 71.1467 31.175 71.6233 32.055V34.915C71.5867 35.7583 71.5683 36.73 71.5683 37.83C71.5683 40.1767 71.6967 41.9367 71.9533 43.11C71.99 43.1467 72.0083 43.2017 72.0083 43.275C72.045 43.3483 72.0817 43.44 72.1183 43.55C72.155 43.6967 72.1733 43.8617 72.1733 44.045C72.1733 44.4483 72.045 44.8517 71.7883 45.255C71.5683 45.6583 71.2933 45.86 70.9633 45.86ZM69.1483 12.145H69.0933L68.9833 12.2L69.1483 12.255V12.145ZM92.7644 31.12C92.9844 35.52 93.1677 38.82 93.3144 41.02C93.3144 41.3867 93.2227 41.7533 93.0394 42.12C92.8927 42.45 92.6177 42.615 92.2144 42.615C91.5544 42.615 91.2244 42.2667 91.2244 41.57C91.2977 39.0033 91.3344 37.0783 91.3344 35.795C91.3344 34.2917 91.261 31.9633 91.1144 28.81L90.8944 25.84L90.7294 12.42C90.6927 12.0167 90.6927 11.54 90.7294 10.99C90.766 10.44 90.7844 10 90.7844 9.67C90.7844 8.97333 90.711 8.25833 90.5644 7.525C90.5277 7.415 90.5094 7.28667 90.5094 7.14C90.5094 6.59 90.8394 6.37 91.4994 6.48C92.2694 6.59 92.691 7.06667 92.7644 7.91C92.801 8.31333 92.8194 8.955 92.8194 9.835C92.8194 10.6783 92.801 11.32 92.7644 11.76L92.3794 22.76L92.7644 31.12ZM84.1844 21.22C85.0644 21.2933 85.9444 21.7883 86.8244 22.705C87.7044 23.6217 88.1994 24.575 88.3094 25.565C88.456 26.8117 88.5844 29.25 88.6944 32.88C88.6944 34.0167 88.566 35.2817 88.3094 36.675C88.0894 38.0683 87.7594 39.26 87.3194 40.25C86.806 41.46 85.376 42.3217 83.0294 42.835C82.6627 42.945 82.3327 43 82.0394 43C80.9394 43 80.3894 42.3033 80.3894 40.91V38.655L80.4444 28.755C80.4444 27.875 80.4077 26.5917 80.3344 24.905L80.2794 22.98C80.2794 22.3933 80.316 21.22 80.3894 19.46C80.4627 16.9667 80.4994 14.7117 80.4994 12.695C80.4994 12.145 80.481 11.3567 80.4444 10.33C80.4077 9.26666 80.3527 8.55167 80.2794 8.185C80.2427 8.11166 80.2244 7.98333 80.2244 7.8C80.2244 7.36 80.4444 7.06667 80.8844 6.92C81.1044 6.84666 81.2694 6.81 81.3794 6.81C81.7094 6.81 81.966 6.975 82.1494 7.305C82.3694 7.635 82.4794 8.075 82.4794 8.625C82.4794 13.5017 82.406 16.9667 82.2594 19.02L82.1494 20.23C82.0394 20.78 81.9844 21.2017 81.9844 21.495C82.2777 21.4583 82.626 21.4033 83.0294 21.33C83.4694 21.22 83.8544 21.1833 84.1844 21.22ZM86.6594 37.17C86.9527 35.4833 87.0994 33.595 87.0994 31.505C87.0994 29.195 86.8977 27.3433 86.4944 25.95C86.2744 25.18 85.871 24.5017 85.2844 23.915C84.6977 23.3283 84.001 23.035 83.1944 23.035C82.8644 23.035 82.5344 23.09 82.2044 23.2V32V36.565C82.2044 37.5183 82.2227 38.325 82.2594 38.985C82.3327 39.6083 82.4794 40.2317 82.6994 40.855C85.0094 40.305 86.3294 39.0767 86.6594 37.17ZM100.081 23.64C99.7873 23.64 99.5123 23.5483 99.2557 23.365C99.0357 23.1817 98.9257 22.9617 98.9257 22.705C98.9257 22.595 104.041 22.54 114.271 22.54H122.081C122.374 22.54 122.649 22.65 122.906 22.87C123.199 23.0533 123.346 23.255 123.346 23.475H121.641C121.641 23.585 119.716 23.64 115.866 23.64H100.081ZM131.085 43.495C130.829 43.495 130.572 43.4033 130.315 43.22C130.059 43.0367 129.912 42.835 129.875 42.615C129.582 41.1483 129.399 40.0483 129.325 39.315L129.16 36.345C128.83 31.9817 128.665 28.3883 128.665 25.565C128.665 24.0617 128.702 22.3933 128.775 20.56C128.849 18.69 128.904 17.3883 128.94 16.655L129.105 13.135C129.179 9.46833 129.215 6.73667 129.215 4.94C129.252 4.61 129.252 4.31667 129.215 4.06C129.215 3.80333 129.215 3.58333 129.215 3.4V1.915C129.215 1.62166 129.344 1.38333 129.6 1.2C129.857 1.01666 130.187 0.961665 130.59 1.035C131.177 1.18166 131.415 1.60333 131.305 2.3C131.232 2.70333 131.177 3.05167 131.14 3.345C131.14 3.60166 131.14 3.82166 131.14 4.005L131.03 6.26C130.957 8.24 130.884 9.70667 130.81 10.66C130.774 11.3567 130.682 12.4933 130.535 14.07C130.499 14.62 130.444 15.2983 130.37 16.105C130.297 16.875 130.242 17.7917 130.205 18.855C130.132 21.495 130.095 23.4933 130.095 24.85C130.095 26.5 130.114 27.7467 130.15 28.59C130.187 30.4967 130.352 32.9717 130.645 36.015L130.81 38.27C130.847 38.5267 130.884 38.82 130.92 39.15C130.994 39.4433 131.049 39.7367 131.085 40.03H131.305C131.379 39.9933 131.782 38.6733 132.515 36.07C133.249 33.43 133.762 31.5967 134.055 30.57L136.86 20.56L141.04 5.27C141.444 3.76666 141.719 2.795 141.865 2.355C142.049 1.805 142.415 1.53 142.965 1.53C143.699 1.53 144.029 1.98833 143.955 2.905C143.919 3.19833 143.864 3.565 143.79 4.005C143.717 4.445 143.662 4.94 143.625 5.49C143.625 6.92 143.589 9.175 143.515 12.255L143.35 19.02C143.35 19.46 143.314 20.12 143.24 21C143.167 22.32 143.13 23.3283 143.13 24.025L143.185 29.855C143.259 32.495 143.295 34.475 143.295 35.795V38.765L143.35 41.295V41.46C143.35 41.8267 143.259 42.12 143.075 42.34C142.929 42.56 142.709 42.6517 142.415 42.615C142.159 42.615 141.92 42.4867 141.7 42.23C141.48 41.9733 141.37 41.68 141.37 41.35C141.37 40.9833 141.407 40.5067 141.48 39.92C141.48 39.2967 141.517 38.325 141.59 37.005C141.664 35.0983 141.7 33.6683 141.7 32.715C141.7 30.3683 141.719 28.315 141.755 26.555C141.792 24.7583 141.829 23.2733 141.865 22.1C141.939 20.56 141.975 19.405 141.975 18.635C141.975 17.7183 142.012 16.3067 142.085 14.4C142.159 11.1733 142.195 8.735 142.195 7.085L141.975 7.03L140.71 11.595L137.245 23.805C136.549 26.1883 135.54 29.8 134.22 34.64C133.45 37.3533 132.882 39.5167 132.515 41.13C132.369 41.5333 132.24 42.01 132.13 42.56C131.984 43.1467 131.654 43.4583 131.14 43.495H131.085ZM166.502 43.33C166.135 43.33 165.86 43.2017 165.677 42.945C165.493 42.6517 165.402 42.3033 165.402 41.9V37.005V32.11L165.292 23.31C165.182 19.3867 165.127 16.4533 165.127 14.51L165.182 12.915V9.34C165.182 5.38 165.145 3.4 165.072 3.4H158.857C158.563 3.4 158.288 3.32666 158.032 3.18C157.812 3.03333 157.702 2.83166 157.702 2.575C157.702 2.28167 157.757 2.08 157.867 1.97C157.977 1.86 158.27 1.76833 158.747 1.695C159.26 1.585 159.993 1.53 160.947 1.53H166.447L172.497 1.475C172.937 1.475 173.23 1.54833 173.377 1.695C173.56 1.84166 173.652 2.08 173.652 2.41C173.652 2.96 173.303 3.235 172.607 3.235H170.132H167.712L167.217 3.29L167.272 6.48V10.77V33.1V37.665L167.327 41.735V41.845C167.327 42.1383 167.308 42.395 167.272 42.615C167.235 42.7983 167.162 42.945 167.052 43.055C166.942 43.2383 166.758 43.33 166.502 43.33ZM183.24 44.155C178.144 44.155 175.595 35.3367 175.595 17.7V15.5C175.595 12.42 175.779 9.74333 176.145 7.47C176.365 6.04 176.659 4.86666 177.025 3.95C177.429 3.03333 177.96 2.3 178.62 1.75C179.244 1.12666 180.05 0.814999 181.04 0.814999C181.92 0.814999 182.727 0.998332 183.46 1.365C184.194 1.695 184.799 2.135 185.275 2.685C185.679 3.19833 186.045 3.87666 186.375 4.72C186.705 5.56333 186.962 6.37 187.145 7.14L187.585 9.725C188.465 15.995 188.905 21.55 188.905 26.39V26.555C188.905 28.3883 188.869 30.075 188.795 31.615C188.722 33.4483 188.52 35.3733 188.19 37.39C188.044 38.38 187.824 39.2417 187.53 39.975C187.274 40.7083 186.925 41.4417 186.485 42.175C185.715 43.495 184.634 44.155 183.24 44.155ZM183.35 42.615C183.937 42.615 184.469 42.285 184.945 41.625C185.422 40.9283 185.789 39.975 186.045 38.765C186.632 36.1983 186.999 33.6867 187.145 31.23C187.219 29.25 187.255 27.325 187.255 25.455V25.235L187.2 19.735C187.127 17.755 186.907 15.1883 186.54 12.035C186.247 9.79833 185.642 7.50667 184.725 5.16C184.359 4.24333 183.864 3.52833 183.24 3.015C182.654 2.50166 182.012 2.245 181.315 2.245C180.692 2.245 180.142 2.53833 179.665 3.125C179.189 3.71166 178.804 4.53666 178.51 5.6C177.85 8.05667 177.484 10.33 177.41 12.42C177.3 14.2167 177.245 16.0683 177.245 17.975V20.67C177.245 23.1267 177.484 26.2433 177.96 30.02C178.254 32.4033 178.62 34.475 179.06 36.235C179.5 37.995 180.087 39.48 180.82 40.69C181.554 41.9733 182.397 42.615 183.35 42.615ZM201.784 43.44C201.528 43.44 201.308 43.3483 201.124 43.165C200.941 43.0183 200.813 42.8167 200.739 42.56L200.794 41.79V35.85C200.794 33.21 200.776 31.23 200.739 29.91C200.703 28.0767 200.611 25.29 200.464 21.55C200.464 21.44 200.464 21.22 200.464 20.89C200.464 20.56 200.446 20.23 200.409 19.9C200.153 20.23 199.896 20.6333 199.639 21.11C199.419 21.5867 199.273 21.88 199.199 21.99C198.943 22.54 198.503 22.98 197.879 23.31C197.256 23.6033 196.578 23.75 195.844 23.75C194.671 23.75 193.828 23.42 193.314 22.76C192.801 22.1 192.544 21.1467 192.544 19.9L192.214 4.06C192.214 3.87666 192.196 3.675 192.159 3.455C192.123 3.235 192.104 2.99666 192.104 2.74C192.104 1.89666 192.379 1.49333 192.929 1.53C193.259 1.53 193.479 1.695 193.589 2.025C193.736 2.31833 193.809 2.63 193.809 2.96C193.809 3.84 193.828 4.51833 193.864 4.995C193.864 8.36833 193.919 11.4117 194.029 14.125L194.084 16.82C194.121 17.4067 194.139 18.2867 194.139 19.46C194.139 20.45 194.286 21.1467 194.579 21.55C194.873 21.9533 195.368 22.155 196.064 22.155C196.651 22.155 197.146 22.0083 197.549 21.715C198.356 20.9083 198.998 19.8267 199.474 18.47C199.988 17.1133 200.244 15.885 200.244 14.785C200.244 12.035 200.281 8.53333 200.354 4.28C200.354 4.06 200.318 3.82167 200.244 3.565C200.208 3.27167 200.189 2.99666 200.189 2.74C200.189 2.59333 200.226 2.41 200.299 2.19C200.373 1.93333 200.519 1.76833 200.739 1.695C200.959 1.62167 201.179 1.62167 201.399 1.695C201.766 1.87833 201.949 2.26333 201.949 2.85C202.023 4.53667 202.059 5.69167 202.059 6.315C202.059 7.48833 202.023 9.505 201.949 12.365C201.839 14.675 201.784 16.9117 201.784 19.075C201.784 21.495 201.913 24.3733 202.169 27.71L202.389 31.45C202.426 31.8533 202.444 32.44 202.444 33.21V35.025L202.774 42.56C202.664 43.1833 202.334 43.4767 201.784 43.44ZM219.689 43.22C218.773 43.22 217.984 42.945 217.324 42.395C216.664 41.845 216.188 41.0567 215.894 40.03C215.784 39.5167 215.711 38.9483 215.674 38.325C215.638 37.665 215.619 37.225 215.619 37.005L215.454 32.44C215.381 29.8 215.308 27.71 215.234 26.17C215.198 25.4733 215.088 24.795 214.904 24.135C214.758 23.585 214.556 23.2 214.299 22.98C214.079 22.7233 213.749 22.595 213.309 22.595C212.943 22.595 212.521 22.65 212.044 22.76V25.895C212.044 27.1417 212.118 29.085 212.264 31.725C212.264 32.3117 212.301 33.2283 212.374 34.475C212.668 38.5817 212.814 41.1117 212.814 42.065C212.704 42.725 212.393 43.055 211.879 43.055C211.183 43.055 210.834 42.7067 210.834 42.01C210.834 39.7733 210.816 38.105 210.779 37.005C210.669 34.255 210.614 31.5417 210.614 28.865L210.504 23.42L210.339 15.775C210.303 14.895 210.284 13.5383 210.284 11.705L210.339 3.51L210.284 2.63C210.284 2.37333 210.339 2.135 210.449 1.915C210.449 1.84167 210.504 1.76833 210.614 1.695C210.724 1.585 210.908 1.53 211.164 1.53C211.604 1.56667 211.843 1.915 211.879 2.575C211.879 3.08833 211.916 3.93167 211.989 5.105L212.044 7.635C212.008 8.69833 211.953 10.7517 211.879 13.795C211.806 16.8383 211.788 18.8917 211.824 19.955C211.824 20.4317 212.008 20.67 212.374 20.67C212.668 20.67 212.998 20.56 213.364 20.34C214.354 19.7167 214.923 18.2133 215.069 15.83C215.143 14.95 215.179 14.2533 215.179 13.74C215.253 12.75 215.326 11.7233 215.399 10.66C215.473 9.59667 215.546 8.53333 215.619 7.47C215.729 5.71 216.426 4.02333 217.709 2.41C218.223 1.75 218.883 1.42 219.689 1.42C220.203 1.42 220.643 1.53 221.009 1.75C221.449 1.93333 221.669 2.20833 221.669 2.575C221.669 2.905 221.578 3.10667 221.394 3.18C221.248 3.25333 221.009 3.25333 220.679 3.18C220.239 3.07 219.891 3.015 219.634 3.015C219.268 3.015 218.974 3.10666 218.754 3.29C218.571 3.43666 218.369 3.71166 218.149 4.115C217.599 5.03166 217.233 6.05833 217.049 7.195C216.866 8.295 216.738 9.63333 216.664 11.21C216.591 12.31 216.554 13.135 216.554 13.685C216.554 13.9783 216.536 14.51 216.499 15.28C216.463 16.0133 216.408 16.7467 216.334 17.48C216.041 19.7533 215.179 21.0733 213.749 21.44C214.629 21.44 215.253 21.7333 215.619 22.32C215.986 22.9067 216.298 23.7683 216.554 24.905C216.664 25.455 216.719 26.39 216.719 27.71V31.505C216.756 32.4583 216.848 34.0167 216.994 36.18C216.994 36.5467 217.031 37.17 217.104 38.05C217.178 38.93 217.434 39.7367 217.874 40.47C218.314 41.2033 218.883 41.57 219.579 41.57C219.653 41.57 219.836 41.5333 220.129 41.46C220.569 41.24 220.954 41.13 221.284 41.13C221.651 41.13 221.889 41.3317 221.999 41.735C222.036 42.0283 221.926 42.3217 221.669 42.615C221.413 42.8717 221.101 43.0367 220.734 43.11C220.221 43.1833 219.873 43.22 219.689 43.22ZM236.861 43C236.567 43 236.311 42.9083 236.091 42.725C235.907 42.5417 235.816 42.3217 235.816 42.065V34.86C235.816 34.42 234.881 34.0167 233.011 33.65C231.141 33.2833 229.601 33.1 228.391 33.1C228.317 33.1 228.189 33.375 228.006 33.925C227.859 34.475 227.749 34.8783 227.676 35.135C227.199 37.0417 226.722 39.0767 226.246 41.24L225.971 42.45C225.897 42.7433 225.714 42.89 225.421 42.89C225.127 42.89 224.852 42.7983 224.596 42.615C224.376 42.4317 224.266 42.2117 224.266 41.955L224.321 41.845V41.79L224.926 39.04C225.366 37.3167 225.751 35.63 226.081 33.98C226.447 32.11 226.722 30.9 226.906 30.35C227.199 29.14 227.786 26.115 228.666 21.275L228.996 19.46C229.949 13.8133 230.609 10.2567 230.976 8.79C231.159 7.91 231.489 6.60833 231.966 4.885C232.149 4.15166 232.406 3.41833 232.736 2.685C233.066 2.06166 233.341 1.75 233.561 1.75C234.147 1.75 234.569 1.93333 234.826 2.3C235.009 2.63 235.284 4.445 235.651 7.745C236.054 11.045 236.402 14.3817 236.696 17.755L237.411 26.885C237.411 28.4617 237.521 30.845 237.741 34.035C237.961 37.2617 238.071 39.6633 238.071 41.24V41.46C238.071 41.8633 238.016 42.23 237.906 42.56C237.759 42.8533 237.411 43 236.861 43ZM234.661 32.385C235.394 32.385 235.761 32.2017 235.761 31.835C235.761 29.5617 235.632 26.4633 235.376 22.54C235.119 18.58 234.844 15.0967 234.551 12.09C234.477 10.8067 234.331 9.395 234.111 7.855L233.891 5.71C233.891 5.74666 233.854 5.545 233.781 5.105L233.671 4.445C233.377 5.25167 233.084 6.37 232.791 7.8C232.534 9.23 232.259 10.9167 231.966 12.86C231.086 18.3233 230.334 22.43 229.711 25.18L229.216 27.05C228.666 28.8833 228.391 30.2767 228.391 31.23V31.56C230.004 32.0733 231.856 32.33 233.946 32.33H234.276C234.386 32.3667 234.514 32.385 234.661 32.385ZM245.69 43.22C245.36 43.22 245.067 43.0917 244.81 42.835C244.59 42.5417 244.48 42.23 244.48 41.9C244.48 41.5333 244.627 41.2033 244.92 40.91C245.213 40.58 245.543 40.415 245.91 40.415C246.203 40.415 246.497 40.58 246.79 40.91C247.083 41.2033 247.23 41.515 247.23 41.845C247.23 42.7617 246.717 43.22 245.69 43.22Z" fill="white"/>
</svg>
